<svg xmlns="http://www.w3.org/2000/svg" width="65" height="65" viewBox="0 0 65 65">
    <defs>
        <style>
            .cls-2{fill:#3e454f;stroke:#3e454f;stroke-miterlimit:10;stroke-width:.1px}
        </style>
    </defs>
    <g id="Group_3926" transform="translate(-1388 -1189.805)">
        <circle id="Mask" cx="32.5" cy="32.5" r="32.5" fill="#f6f8fa" transform="translate(1388 1189.805)"/>
        <g id="placeholder_8_" transform="translate(1405 1205.602)">
            <path id="Fill_1" d="M3.49 6.977a3.488 3.488 0 1 1 3.49-3.49 3.494 3.494 0 0 1-3.49 3.49zm0-5.982a2.493 2.493 0 1 0 2.492 2.492A2.495 2.495 0 0 0 3.49.994z" class="cls-2" transform="translate(11.462 5.982)"/>
            <g id="Group_5">
                <path id="Fill_2" d="M9.562 27.291L1.9 16.232A10.876 10.876 0 0 1 2.8 2.8a9.557 9.557 0 0 1 13.517 0 10.888 10.888 0 0 1 .888 13.447L9.563 27.289zM9.562 1a8.51 8.51 0 0 0-6.055 2.5 9.835 9.835 0 0 0-.794 12.146l6.848 9.891 6.839-9.871A9.843 9.843 0 0 0 15.614 3.5 8.5 8.5 0 0 0 9.562 1z" class="cls-2" transform="translate(5.303)"/>
                <path id="Fill_4" d="M20.992 0a.5.5 0 1 0-.117.991c5.24.616 8.031 2.278 8.031 3.242 0 1.353-5.307 3.239-13.954 3.239S1 5.589 1 4.236C1 3.272 3.789 1.61 9.029.994A.5.5 0 1 0 8.912 0C3.665.622 0 2.362 0 4.236c0 2.105 5.135 4.237 14.952 4.237S29.9 6.341 29.9 4.236C29.9 2.362 26.24.622 20.992 0z" class="cls-2" transform="translate(0 21.432)"/>
            </g>
        </g>
    </g>
</svg>
