<svg xmlns="http://www.w3.org/2000/svg" id="photo-camera_7_" width="25.973" height="20.565" viewBox="0 0 25.973 20.565">
    <defs>
        <clipPath id="clip-path">
            <path id="Clip_2" d="M0 0h25.973v20.565H0z" class="cls-1"/>
        </clipPath>
        <style>
            .cls-1{fill:#324688}
        </style>
    </defs>
    <g id="photo-camera_7_2" clip-path="url(#clip-path)">
        <path id="Fill_1" d="M23.388 20.577H2.6A2.589 2.589 0 0 1 0 18.005V6.43a2.589 2.589 0 0 1 2.6-2.572h3.118a1.154 1.154 0 0 0 1.025-.732L7.55.732A1.151 1.151 0 0 1 8.575 0h8.837a1.154 1.154 0 0 1 1.025.732l.807 2.394a1.151 1.151 0 0 0 1.025.732h3.119a2.588 2.588 0 0 1 2.6 2.572v11.575a2.588 2.588 0 0 1-2.6 2.572zM12.994 5.144a6.431 6.431 0 1 0 6.5 6.431 6.471 6.471 0 0 0-6.5-6.431zm9.484 1.285a.9.9 0 1 0 .91.9.906.906 0 0 0-.91-.9zm-9.484 9a3.859 3.859 0 1 1 3.9-3.858 3.883 3.883 0 0 1-3.9 3.862z" class="cls-1" transform="translate(-.019 -.013)"/>
    </g>
</svg>
